<svg width="158" height="25" viewBox="0 0 158 25" fill="none" xmlns="http://www.w3.org/2000/svg">
<defs>
  <style>
    @import url('https://fonts.googleapis.com/css2?family=Montserrat:wght@700&amp;display=swap');
    .logo-text { font-family: Montserrat, Arial, sans-serif; font-weight: 700; font-size: 17px; }
  </style>
  <clipPath id="clip0_407_2739">
    <rect width="28.4286" height="24.875" fill="white" transform="translate(0 0.0625)"/>
  </clipPath>
</defs>
<g clip-path="url(#clip0_407_2739)">
<path d="M28.4286 16.9421C28.4286 17.1731 28.4286 17.3863 28.3975 17.6217C28.3724 17.9529 28.3189 18.2814 28.2376 18.6034C27.1315 23.2319 21.2726 24.9376 14.2143 24.9376C7.156 24.9376 1.29705 23.2319 0.191004 18.6034C0.109718 18.2814 0.0562178 17.9529 0.0310938 17.6217C0 17.3863 0 17.1731 0 16.9421C0 11.0565 6.36533 3.61621 14.2143 3.61621C22.0632 3.61621 28.4286 11.0565 28.4286 16.9421Z" fill="#DCF8D6"/>
<path d="M20.4331 10.7232C23.377 10.7232 25.7635 8.33673 25.7635 5.39286C25.7635 2.44898 23.377 0.0625 20.4331 0.0625C17.4893 0.0625 15.1028 2.44898 15.1028 5.39286C15.1028 8.33673 17.4893 10.7232 20.4331 10.7232Z" fill="#DCF8D6"/>
<path d="M20.433 8.0579C21.9049 8.0579 23.0982 6.86466 23.0982 5.39272C23.0982 3.92078 21.9049 2.72754 20.433 2.72754C18.9611 2.72754 17.7678 3.92078 17.7678 5.39272C17.7678 6.86466 18.9611 8.0579 20.433 8.0579Z" fill="#044448"/>
<path d="M7.99564 10.7232C10.9395 10.7232 13.326 8.33673 13.326 5.39286C13.326 2.44898 10.9395 0.0625 7.99564 0.0625C5.05177 0.0625 2.66528 2.44898 2.66528 5.39286C2.66528 8.33673 5.05177 10.7232 7.99564 10.7232Z" fill="#DCF8D6"/>
<path d="M7.9955 8.0579C9.46744 8.0579 10.6607 6.86466 10.6607 5.39272C10.6607 3.92078 9.46744 2.72754 7.9955 2.72754C6.52356 2.72754 5.33032 3.92078 5.33032 5.39272C5.33032 6.86466 6.52356 8.0579 7.9955 8.0579Z" fill="#044448"/>
<path d="M11.9932 15.1652C12.7292 15.1652 13.3258 14.5686 13.3258 13.8326C13.3258 13.0966 12.7292 12.5 11.9932 12.5C11.2573 12.5 10.6606 13.0966 10.6606 13.8326C10.6606 14.5686 11.2573 15.1652 11.9932 15.1652Z" fill="#044448"/>
<path d="M16.4354 15.1652C17.1713 15.1652 17.768 14.5686 17.768 13.8326C17.768 13.0966 17.1713 12.5 16.4354 12.5C15.6994 12.5 15.1028 13.0966 15.1028 13.8326C15.1028 14.5686 15.6994 15.1652 16.4354 15.1652Z" fill="#044448"/>
<path d="M14.2142 20.0513C9.37848 20.1052 4.57306 19.2819 0.0310059 17.6216C0.0561299 17.9528 0.10963 18.2812 0.190917 18.6033C4.69318 20.1944 9.43924 20.9852 14.2142 20.9397C18.9892 20.9852 23.7352 20.1944 28.2375 18.6033C28.3188 18.2812 28.3723 17.9528 28.3974 17.6216C23.8553 19.2819 19.0499 20.1052 14.2142 20.0513Z" fill="#028E7F"/>
</g>
<text x="37" y="20" class="logo-text" fill="#212529">Fin</text>
<text x="70" y="20" class="logo-text" fill="#DCF8D6">Odnowa</text>
</svg>